ffmpeg started on 2016-12-07 at 11:09:24
Report written to "Output/x264/results/ffmpeg/sintelslow6000k.log"
Command line:
Tools/ffmpeg/ffmpeg -benchmark -y -i Input/y4m/sintel.y4m -c:v libx264 -preset slow -b:v 6000k -an Output/x264/encoded/sintelslow6000k.mkv
ffmpeg version N-82227-gdb23fde Copyright (c) 2000-2016 the FFmpeg developers
  built with gcc 5.4.0 (Ubuntu 5.4.0-6ubuntu1~16.04.2) 20160609
  configuration: --prefix=/home/jaroslav/ffmpeg_build --pkg-config-flags=--static --extra-cflags=-I/home/jaroslav/ffmpeg_build/include --extra-ldflags=-L/home/jaroslav/ffmpeg_build/lib --bindir=/home/jaroslav/bin --enable-gpl --enable-libass --enable-libfdk-aac --enable-libfreetype --enable-libmp3lame --enable-libopus --enable-libtheora --enable-libvorbis --enable-libvpx --enable-libx264 --enable-libx265 --enable-nvenc --enable-libmfx --enable-libxvid --enable-libgsm --enable-libopencore-amrnb --enable-version3 --enable-nonfree
  libavutil      55. 35.100 / 55. 35.100
  libavcodec     57. 66.101 / 57. 66.101
  libavformat    57. 57.100 / 57. 57.100
  libavdevice    57.  2.100 / 57.  2.100
  libavfilter     6. 66.100 /  6. 66.100
  libswscale      4.  3.100 /  4.  3.100
  libswresample   2.  4.100 /  2.  4.100
  libpostproc    54.  2.100 / 54.  2.100
Input #0, yuv4mpegpipe, from 'Input/y4m/sintel.y4m':
  Duration: 00:00:20.83, start: 0.000000, bitrate: 2057307 kb/s
    Stream #0:0: Video: rawvideo (I420 / 0x30323449), yuv420p(progressive), 4096x1744, SAR 1:1 DAR 256:109, 24 fps, 24 tbr, 24 tbn, 24 tbc
[libx264 @ 0x3c03120] using SAR=1/1
[libx264 @ 0x3c03120] using cpu capabilities: MMX2 SSE2Fast SSSE3 SSE4.2 AVX FMA3 AVX2 LZCNT BMI2
[libx264 @ 0x3c03120] profile High, level 5.1
[libx264 @ 0x3c03120] 264 - core 148 - H.264/MPEG-4 AVC codec - Copyleft 2003-2016 - http://www.videolan.org/x264.html - options: cabac=1 ref=5 deblock=1:0:0 analyse=0x3:0x113 me=hex subme=8 psy=1 psy_rd=1.00:0.00 mixed_ref=1 me_range=16 chroma_me=1 trellis=2 8x8dct=1 cqm=0 deadzone=21,11 fast_pskip=1 chroma_qp_offset=-2 threads=6 lookahead_threads=1 sliced_threads=0 nr=0 decimate=1 interlaced=0 bluray_compat=0 constrained_intra=0 bframes=3 b_pyramid=2 b_adapt=1 b_bias=0 direct=3 weightb=1 open_gop=0 weightp=2 keyint=250 keyint_min=24 scenecut=40 intra_refresh=0 rc_lookahead=50 rc=abr mbtree=1 bitrate=6000 ratetol=1.0 qcomp=0.60 qpmin=0 qpmax=69 qpstep=4 ip_ratio=1.40 aq=1:1.00
Output #0, matroska, to 'Output/x264/encoded/sintelslow6000k.mkv':
  Metadata:
    encoder         : Lavf57.57.100
    Stream #0:0: Video: h264 (libx264) (H264 / 0x34363248), yuv420p, 4096x1744 [SAR 1:1 DAR 256:109], q=-1--1, 6000 kb/s, 24 fps, 1k tbn, 24 tbc
    Metadata:
      encoder         : Lavc57.66.101 libx264
    Side data:
      cpb: bitrate max/min/avg: 0/0/6000000 buffer size: 0 vbv_delay: -1
Stream mapping:
  Stream #0:0 -> #0:0 (rawvideo (native) -> h264 (libx264))
Press [q] to stop, [?] for help
frame=    5 fps=0.0 q=0.0 size=       0kB time=00:00:00.00 bitrate=N/A speed=   0x    frame=   14 fps= 13 q=0.0 size=       0kB time=00:00:00.00 bitrate=N/A speed=   0x    frame=   23 fps= 14 q=0.0 size=       0kB time=00:00:00.00 bitrate=N/A speed=   0x    frame=   32 fps= 15 q=0.0 size=       0kB time=00:00:00.00 bitrate=N/A speed=   0x    frame=   41 fps= 16 q=0.0 size=       0kB time=00:00:00.00 bitrate=N/A speed=   0x    frame=   50 fps= 16 q=0.0 size=       0kB time=00:00:00.00 bitrate=N/A speed=   0x    frame=   57 fps=9.0 q=0.0 size=       0kB time=00:00:00.00 bitrate=N/A speed=   0x    frame=   58 fps=6.0 q=0.0 size=       0kB time=00:00:00.00 bitrate=N/A speed=   0x    frame=   59 fps=5.2 q=0.0 size=       0kB time=00:00:00.00 bitrate=N/A speed=   0x    frame=   62 fps=5.3 q=29.0 size=       1kB time=-00:00:00.04 bitrate=N/A speed=N/A    frame=   66 fps=5.3 q=36.0 size=       1kB time=00:00:00.12 bitrate=  46.6kbits/s speed=0.0101x    frame=   67 fps=5.0 q=46.0 size=       1kB time=00:00:00.16 bitrate=  35.0kbits/s speed=0.0126x    frame=   71 fps=5.1 q=48.0 size=       1kB time=00:00:00.33 bitrate=  17.6kbits/s speed=0.024x    frame=   75 fps=5.2 q=47.0 size=       1kB time=00:00:00.50 bitrate=  11.7kbits/s speed=0.0345x    frame=   79 fps=5.2 q=47.0 size=       1kB time=00:00:00.66 bitrate=   8.8kbits/s speed=0.0443x    frame=   83 fps=5.3 q=46.0 size=       1kB time=00:00:00.83 bitrate=   7.0kbits/s speed=0.053x    frame=   87 fps=5.3 q=46.0 size=       1kB time=00:00:01.00 bitrate=   5.9kbits/s speed=0.0615x    frame=   91 fps=5.4 q=45.0 size=       1kB time=00:00:01.16 bitrate=   5.0kbits/s speed=0.0695x    frame=   95 fps=5.4 q=45.0 size=       1kB time=00:00:01.33 bitrate=   4.4kbits/s speed=0.0762x    frame=   98 fps=5.4 q=45.0 size=       1kB time=00:00:01.45 bitrate=   4.0kbits/s speed=0.0806x    frame=  102 fps=5.5 q=44.0 size=       1kB time=00:00:01.62 bitrate=   3.6kbits/s speed=0.0871x    frame=  106 fps=5.5 q=44.0 size=       1kB time=00:00:01.79 bitrate=   3.3kbits/s speed=0.0929x    frame=  112 fps=5.6 q=43.0 size=       1kB time=00:00:02.04 bitrate=   2.9kbits/s speed=0.101x    frame=  115 fps=5.5 q=43.0 size=       1kB time=00:00:02.16 bitrate=   2.7kbits/s speed=0.105x    frame=  118 fps=5.6 q=43.0 size=       1kB time=00:00:02.29 bitrate=   2.6kbits/s speed=0.108x    frame=  121 fps=5.6 q=43.0 size=       1kB time=00:00:02.41 bitrate=   2.4kbits/s speed=0.111x    frame=  125 fps=5.5 q=43.0 size=       1kB time=00:00:02.58 bitrate=   2.3kbits/s speed=0.114x    frame=  127 fps=5.5 q=43.0 size=       1kB time=00:00:02.66 bitrate=   2.2kbits/s speed=0.115x    frame=  131 fps=5.5 q=43.0 size=       1kB time=00:00:02.83 bitrate=   2.1kbits/s speed=0.119x    frame=  134 fps=5.5 q=43.0 size=       1kB time=00:00:02.95 bitrate=   2.0kbits/s speed=0.121x    frame=  138 fps=5.5 q=43.0 size=       1kB time=00:00:03.12 bitrate=   1.9kbits/s speed=0.124x    frame=  141 fps=5.4 q=42.0 size=       1kB time=00:00:03.25 bitrate=   1.8kbits/s speed=0.125x    frame=  145 fps=5.5 q=42.0 size=       1kB time=00:00:03.41 bitrate=   1.7kbits/s speed=0.129x    frame=  148 fps=5.4 q=42.0 size=       1kB time=00:00:03.54 bitrate=   1.7kbits/s speed=0.129x    frame=  151 fps=5.4 q=42.0 size=       1kB time=00:00:03.66 bitrate=   1.6kbits/s speed=0.131x    frame=  155 fps=5.4 q=42.0 size=       1kB time=00:00:03.83 bitrate=   1.5kbits/s speed=0.134x    frame=  162 fps=5.5 q=42.0 size=    3309kB time=00:00:04.12 bitrate=6570.8kbits/s speed=0.141x    frame=  163 fps=5.5 q=42.0 size=    3309kB time=00:00:04.16 bitrate=6504.5kbits/s speed=0.14x    frame=  169 fps=5.6 q=41.0 size=    3309kB time=00:00:04.41 bitrate=6136.5kbits/s speed=0.145x    frame=  172 fps=5.6 q=41.0 size=    3309kB time=00:00:04.54 bitrate=5967.6kbits/s speed=0.147x    frame=  178 fps=5.6 q=41.0 size=    3309kB time=00:00:04.79 bitrate=5656.4kbits/s speed=0.152x    frame=  181 fps=5.6 q=41.0 size=    3309kB time=00:00:04.91 bitrate=5512.6kbits/s speed=0.152x    frame=  186 fps=5.7 q=41.0 size=    3309kB time=00:00:05.12 bitrate=5288.9kbits/s speed=0.156x    frame=  188 fps=5.6 q=41.0 size=    3309kB time=00:00:05.20 bitrate=5204.6kbits/s speed=0.156x    frame=  191 fps=5.6 q=41.0 size=    3309kB time=00:00:05.33 bitrate=5082.7kbits/s speed=0.158x    frame=  195 fps=5.7 q=41.0 size=    3309kB time=00:00:05.50 bitrate=4928.4kbits/s speed=0.159x    frame=  198 fps=5.6 q=41.0 size=    3309kB time=00:00:05.62 bitrate=4818.9kbits/s speed=0.161x    frame=  202 fps=5.7 q=41.0 size=    3309kB time=00:00:05.79 bitrate=4679.9kbits/s speed=0.163x    frame=  205 fps=5.7 q=41.0 size=    3309kB time=00:00:05.91 bitrate=4581.1kbits/s speed=0.164x    frame=  208 fps=5.7 q=41.0 size=    3309kB time=00:00:06.04 bitrate=4486.3kbits/s speed=0.165x    frame=  212 fps=5.7 q=38.0 size=    3309kB time=00:00:06.20 bitrate=4366.4kbits/s speed=0.166x    frame=  220 fps=5.8 q=41.0 size=    4878kB time=00:00:06.54 bitrate=6107.8kbits/s speed=0.172x    frame=  223 fps=5.8 q=41.0 size=    4878kB time=00:00:06.66 bitrate=5993.3kbits/s speed=0.173x    frame=  227 fps=5.8 q=41.0 size=    4878kB time=00:00:06.83 bitrate=5847.7kbits/s speed=0.175x    frame=  231 fps=5.8 q=40.0 size=    4878kB time=00:00:07.00 bitrate=5708.2kbits/s speed=0.176x    frame=  234 fps=5.8 q=40.0 size=    4878kB time=00:00:07.12 bitrate=5608.1kbits/s speed=0.176x    frame=  236 fps=5.8 q=40.0 size=    4878kB time=00:00:07.20 bitrate=5543.5kbits/s speed=0.176x    frame=  241 fps=5.8 q=40.0 size=    4878kB time=00:00:07.41 bitrate=5387.3kbits/s speed=0.178x    frame=  250 fps=5.9 q=40.0 size=    5549kB time=00:00:07.79 bitrate=5833.6kbits/s speed=0.184x    frame=  254 fps=5.9 q=40.0 size=    5549kB time=00:00:07.95 bitrate=5711.9kbits/s speed=0.185x    frame=  258 fps=5.9 q=40.0 size=    5549kB time=00:00:08.12 bitrate=5594.5kbits/s speed=0.186x    frame=  262 fps=5.9 q=40.0 size=    5549kB time=00:00:08.29 bitrate=5481.8kbits/s speed=0.187x    frame=  266 fps=5.9 q=40.0 size=    5549kB time=00:00:08.45 bitrate=5374.3kbits/s speed=0.188x    frame=  269 fps=5.9 q=40.0 size=    5549kB time=00:00:08.58 bitrate=5296.0kbits/s speed=0.188x    frame=  274 fps=5.9 q=40.0 size=    5549kB time=00:00:08.79 bitrate=5170.1kbits/s speed=0.191x    frame=  278 fps=6.0 q=40.0 size=    5549kB time=00:00:08.95 bitrate=5074.3kbits/s speed=0.192x    frame=  282 fps=6.0 q=40.0 size=    5549kB time=00:00:09.12 bitrate=4981.5kbits/s speed=0.193x    frame=  288 fps=6.0 q=39.0 size=    5549kB time=00:00:09.37 bitrate=4848.7kbits/s speed=0.196x    frame=  291 fps=6.0 q=39.0 size=    5549kB time=00:00:09.50 bitrate=4784.9kbits/s speed=0.196x    frame=  294 fps=6.0 q=39.0 size=    5549kB time=00:00:09.62 bitrate=4722.7kbits/s speed=0.197x    frame=  300 fps=6.1 q=39.0 size=    5549kB time=00:00:09.87 bitrate=4603.2kbits/s speed=0.199x    frame=  304 fps=6.1 q=39.0 size=    5549kB time=00:00:10.04 bitrate=4526.6kbits/s speed=0.201x    frame=  308 fps=6.1 q=39.0 size=    5549kB time=00:00:10.20 bitrate=4453.0kbits/s speed=0.202x    frame=  313 fps=6.1 q=39.0 size=    5549kB time=00:00:10.41 bitrate=4363.7kbits/s speed=0.203x    frame=  318 fps=6.0 q=38.0 size=    5549kB time=00:00:10.62 bitrate=4278.3kbits/s speed=0.202x    frame=  324 fps=6.1 q=38.0 size=    5549kB time=00:00:10.87 bitrate=4179.9kbits/s speed=0.204x    frame=  332 fps=6.1 q=38.0 size=    7383kB time=00:00:11.20 bitrate=5395.7kbits/s speed=0.208x    frame=  340 fps=6.2 q=38.0 size=    7383kB time=00:00:11.54 bitrate=5239.6kbits/s speed=0.211x    frame=  344 fps=6.2 q=38.0 size=    7383kB time=00:00:11.70 bitrate=5165.3kbits/s speed=0.212x    frame=  350 fps=6.3 q=37.0 size=    7383kB time=00:00:11.95 bitrate=5057.3kbits/s speed=0.214x    frame=  356 fps=6.3 q=37.0 size=    7383kB time=00:00:12.20 bitrate=4953.8kbits/s speed=0.216x    frame=  364 fps=6.4 q=37.0 size=    7383kB time=00:00:12.54 bitrate=4821.9kbits/s speed=0.219x    frame=  372 fps=6.4 q=37.0 size=    7383kB time=00:00:12.87 bitrate=4697.2kbits/s speed=0.223x    frame=  376 fps=6.4 q=37.0 size=    7383kB time=00:00:13.04 bitrate=4637.0kbits/s speed=0.223x    frame=  384 fps=6.5 q=36.0 size=    7383kB time=00:00:13.37 bitrate=4521.6kbits/s speed=0.226x    frame=  391 fps=6.6 q=36.0 size=    7383kB time=00:00:13.66 bitrate=4425.0kbits/s speed=0.229x    frame=  396 fps=6.6 q=36.0 size=    7383kB time=00:00:13.87 bitrate=4358.6kbits/s speed=0.23x    frame=  402 fps=6.6 q=35.0 size=    7383kB time=00:00:14.12 bitrate=4281.5kbits/s speed=0.232x    frame=  408 fps=6.6 q=35.0 size=    7383kB time=00:00:14.37 bitrate=4207.1kbits/s speed=0.234x    frame=  415 fps=6.7 q=35.0 size=    7383kB time=00:00:14.66 bitrate=4123.3kbits/s speed=0.237x    frame=  421 fps=6.7 q=35.0 size=    7383kB time=00:00:14.91 bitrate=4054.2kbits/s speed=0.239x    frame=  425 fps=6.8 q=35.0 size=    9155kB time=00:00:15.08 bitrate=4972.1kbits/s speed=0.24x    frame=  428 fps=6.7 q=35.0 size=    9155kB time=00:00:15.20 bitrate=4931.3kbits/s speed=0.24x    frame=  433 fps=6.8 q=34.0 size=    9155kB time=00:00:15.41 bitrate=4864.4kbits/s speed=0.241x    frame=  436 fps=6.8 q=34.0 size=    9155kB time=00:00:15.54 bitrate=4825.3kbits/s speed=0.241x    frame=  442 fps=6.8 q=34.0 size=    9155kB time=00:00:15.79 bitrate=4748.9kbits/s speed=0.243x    frame=  446 fps=6.8 q=34.0 size=    9155kB time=00:00:15.95 bitrate=4699.5kbits/s speed=0.243x    frame=  452 fps=6.8 q=34.0 size=    9155kB time=00:00:16.20 bitrate=4627.0kbits/s speed=0.244x    frame=  455 fps=6.8 q=34.0 size=    9155kB time=00:00:16.33 bitrate=4591.6kbits/s speed=0.244x    frame=  461 fps=6.8 q=34.0 size=    9155kB time=00:00:16.58 bitrate=4522.4kbits/s speed=0.243x    frame=  467 fps=6.8 q=34.0 size=    9155kB time=00:00:16.83 bitrate=4455.3kbits/s speed=0.244x    frame=  474 fps=6.8 q=31.0 size=    9155kB time=00:00:17.12 bitrate=4379.3kbits/s speed=0.246x    frame=  478 fps=6.8 q=34.0 size=    9155kB time=00:00:17.29 bitrate=4337.0kbits/s speed=0.246x    frame=  484 fps=6.8 q=34.0 size=   10746kB time=00:00:17.54 bitrate=5018.0kbits/s speed=0.247x    frame=  489 fps=6.8 q=34.0 size=   10746kB time=00:00:17.75 bitrate=4959.2kbits/s speed=0.248x    frame=  494 fps=6.9 q=34.0 size=   10746kB time=00:00:17.95 bitrate=4901.7kbits/s speed=0.249x    frame=  498 fps=6.9 q=34.0 size=   10746kB time=00:00:18.12 bitrate=4856.6kbits/s speed=0.25x    frame=  500 fps=6.4 q=-1.0 Lsize=   13019kB time=00:00:20.70 bitrate=5149.9kbits/s speed=0.264x    
video:13014kB audio:0kB subtitle:0kB other streams:0kB global headers:0kB muxing overhead: 0.036387%
bench: utime=258.936s
bench: maxrss=1818820kB
[libx264 @ 0x3c03120] frame I:8     Avg QP:29.70  size: 99898
[libx264 @ 0x3c03120] frame P:269   Avg QP:34.75  size: 32911
[libx264 @ 0x3c03120] frame B:223   Avg QP:33.82  size: 16472
[libx264 @ 0x3c03120] consecutive B-frames: 37.0%  8.4%  6.6% 48.0%
[libx264 @ 0x3c03120] mb I  I16..4: 40.9% 57.0%  2.1%
[libx264 @ 0x3c03120] mb P  I16..4: 23.0% 16.4%  0.1%  P16..4: 18.7%  1.4%  0.7%  0.0%  0.0%    skip:39.6%
[libx264 @ 0x3c03120] mb B  I16..4:  1.0%  1.4%  0.0%  B16..8: 27.4%  1.4%  0.2%  direct: 0.5%  skip:68.1%  L0:39.8% L1:58.6% BI: 1.6%
[libx264 @ 0x3c03120] final ratefactor: 31.62
[libx264 @ 0x3c03120] 8x8 transform intra:43.2% inter:90.6%
[libx264 @ 0x3c03120] direct mvs  spatial:98.7% temporal:1.3%
[libx264 @ 0x3c03120] coded y,uvDC,uvAC intra: 7.4% 19.3% 0.7% inter: 2.6% 3.1% 0.0%
[libx264 @ 0x3c03120] i16 v,h,dc,p: 34% 31%  7% 28%
[libx264 @ 0x3c03120] i8 v,h,dc,ddl,ddr,vr,hd,vl,hu: 12%  9% 58%  3%  4%  4%  4%  3%  4%
[libx264 @ 0x3c03120] i4 v,h,dc,ddl,ddr,vr,hd,vl,hu: 14% 15%  9%  7% 14% 10% 15%  6% 10%
[libx264 @ 0x3c03120] i8c dc,h,v,p: 84% 10%  5%  1%
[libx264 @ 0x3c03120] Weighted P-Frames: Y:1.1% UV:0.7%
[libx264 @ 0x3c03120] ref P L0: 64.4% 14.6% 12.0%  4.2%  3.4%  1.3%
[libx264 @ 0x3c03120] ref B L0: 89.4%  7.3%  2.8%  0.5%
[libx264 @ 0x3c03120] ref B L1: 97.8%  2.2%
[libx264 @ 0x3c03120] kb/s:5116.99
